<svg xmlns="http://www.w3.org/2000/svg" fill="none" viewBox="0 0 2348 1073" height="1073" width="2348">
<g clip-path="url(#clip0_1555_124)">
<path stroke-width="85" stroke="black" fill="black" d="M310.311 666.627C307.393 689.973 298.645 701.537 273.845 724.149C271.479 726.306 272.44 730.246 275.543 731.034L318.561 741.958C319.151 742.108 319.766 742.121 320.362 741.997L366.888 732.302C370.255 731.601 371.223 727.248 368.508 725.135C345.666 707.362 335.868 695.511 331.085 666.627C329.745 651.66 312.377 650.096 310.311 666.627Z"></path>
<path stroke-width="85" stroke="black" fill="black" d="M145.374 640.609C141.527 673.352 145.437 701.474 159.262 730.624C160.644 733.537 158.303 736.907 155.128 736.349C147.209 734.957 141.351 732.961 133.099 729.008C132.422 728.684 131.849 728.163 131.452 727.526C101.978 680.192 86.9001 645.024 80.6878 588.897C78.0079 575.048 59.9143 577.952 60.5838 588.897C64.1585 631.786 138.766 731.652 91.6333 698.576C44.6153 665.58 37.068 623.622 44.4464 569.635C44.482 569.374 44.4913 569.099 44.4791 568.837C43.1225 539.461 87.7645 531.859 94.0905 563.879C101.274 600.231 115.881 619.189 143.494 636.67C144.823 637.511 145.558 639.047 145.374 640.609Z"></path>
<path stroke-width="85" stroke="black" fill="black" d="M496.043 641.059C499.891 673.801 495.981 701.924 482.155 731.074C480.774 733.987 483.114 737.357 486.289 736.799C494.208 735.406 500.066 733.411 508.318 729.458C508.995 729.133 509.569 728.613 509.966 727.975C539.439 680.642 554.518 645.474 560.73 589.347C563.41 575.497 581.503 578.401 580.834 589.347C577.259 632.235 502.652 728.051 549.784 699.025C596.916 670 596.916 626.429 596.917 569.693L596.917 569.69C598.703 539.98 553.682 532.162 547.327 564.329C540.144 600.681 525.536 619.639 497.923 637.119C496.594 637.961 495.86 639.496 496.043 641.059Z"></path>
<path stroke-width="85" stroke="black" fill="black" d="M161.778 595.597C131.265 577.123 130.65 530.679 153.3 508.965C155.561 506.797 155.189 502.797 152.334 501.51L138.504 495.273C137.04 494.613 135.309 494.892 134.168 496.022C100.806 529.071 107.37 583.466 148.152 615.478C200.356 651.231 259.022 618.062 272.121 570.324C272.556 568.735 271.905 567.059 270.549 566.122L256.935 556.719C254.378 554.953 250.817 556.655 250.22 559.705C242.913 597.072 197.982 622.118 161.778 595.597Z"></path>
<path stroke-width="85" stroke="black" fill="black" d="M478.534 595.822C509.047 577.348 509.663 530.904 487.013 509.19C484.751 507.022 485.123 503.022 487.979 501.734L501.808 495.498C503.272 494.838 505.003 495.117 506.144 496.247C539.506 529.295 532.942 583.691 492.16 615.703C439.956 651.456 381.291 618.287 368.192 570.549C367.756 568.96 368.408 567.284 369.764 566.347L383.378 556.944C385.934 555.178 389.496 556.88 390.092 559.93C397.4 597.297 442.33 622.343 478.534 595.822Z"></path>
<path stroke-width="85" stroke="black" fill="black" d="M318.232 627.839L296.104 596.566C295.124 595.181 295.124 593.33 296.104 591.945L318.232 560.672C319.826 558.42 323.169 558.42 324.763 560.672L346.891 591.945C347.871 593.33 347.871 595.181 346.891 596.566L324.763 627.839C323.169 630.091 319.826 630.091 318.232 627.839Z"></path>
<path stroke-width="85" stroke="black" fill="black" d="M89.9589 527.58C77.8278 522.328 68.8767 521.534 55.3961 525.547C52.4806 526.415 49.5768 524.014 50.2692 521.052C54.6643 502.25 65.4027 482.122 80.037 462.362C81.3674 460.566 83.9206 460.246 85.6742 461.632L112.437 482.789C114.157 484.149 114.455 486.641 113.145 488.4C103.467 501.395 99.2744 510.549 95.7104 524.782C95.0838 527.284 92.326 528.605 89.9589 527.58Z"></path>
<path stroke-width="85" stroke="black" fill="black" d="M551.221 527.58C563.352 522.328 572.303 521.534 585.784 525.547C588.699 526.415 591.603 524.014 590.91 521.052C586.515 502.25 575.777 482.122 561.143 462.362C559.812 460.566 557.259 460.246 555.506 461.632L528.743 482.789C527.022 484.149 526.724 486.641 528.034 488.4C537.713 501.395 541.905 510.549 545.469 524.782C546.096 527.284 548.854 528.605 551.221 527.58Z"></path>
<path stroke-width="85" stroke="black" fill="black" d="M271.682 437.445C217.769 398.811 125.574 398.887 101.899 334.62C101.03 332.26 98.2749 331.086 96.1887 332.489C63.7564 354.3 62.2884 415.485 98.1174 446.38C168.595 499.075 180.758 478.299 270.922 540.804C273.911 542.875 277.873 540.262 276.914 536.755C265.253 494.065 238.179 473.566 165.131 447.497C126.487 432.977 104.149 422.925 93.6499 397.907C85.8316 381.6 105.489 373.559 111.52 387.855C116.32 396.034 120.621 400.834 130.954 409.969C177.445 446.638 267.443 428.709 300.504 538.733C301.462 541.922 305.683 542.822 307.708 540.179L309.888 537.333C310.46 536.587 310.75 535.651 310.706 534.712C308.521 488.465 300.419 459.992 271.682 437.445Z"></path>
<path stroke-width="85" stroke="black" fill="black" d="M369.97 437.445C423.883 398.811 516.079 398.887 539.753 334.62C540.622 332.26 543.377 331.086 545.464 332.489C577.896 354.3 579.364 415.485 543.535 446.38C473.058 499.075 460.894 478.299 370.73 540.804C367.742 542.875 363.78 540.262 364.738 536.755C376.399 494.065 403.473 473.566 476.522 447.497C515.166 432.977 537.503 422.925 548.002 397.907C555.821 381.6 536.163 373.559 530.132 387.855C525.333 396.034 521.031 400.834 510.698 409.969C464.208 446.638 374.21 428.709 341.149 538.733C340.19 541.922 335.969 542.822 333.944 540.179L331.764 537.333C331.193 536.587 330.902 535.651 330.946 534.712C333.131 488.465 341.234 459.992 369.97 437.445Z"></path>
<path stroke-width="85" stroke="black" fill="black" d="M265.269 614.603C249.151 661.416 219.727 683.641 179.429 694.327C160.888 699.244 168.26 717.937 183.897 714.431C233.71 703.263 266.323 671.766 283.97 622.176C286.392 610.503 272.31 604.259 265.706 613.723C265.52 613.989 265.375 614.295 265.269 614.603Z"></path>
<path stroke-width="85" stroke="black" fill="black" d="M375.75 614.26C391.869 661.072 421.293 683.298 461.59 693.984C480.131 698.901 472.76 717.594 457.123 714.088C407.309 702.92 374.696 671.423 357.049 621.833C354.627 610.16 368.71 603.916 375.313 613.38C375.499 613.646 375.644 613.952 375.75 614.26Z"></path>
<path stroke-width="85" stroke="black" fill="black" d="M2001.29 454V493.934C2001.29 496.143 1999.5 497.934 1997.29 497.934H1894.28C1892.07 497.934 1890.28 499.725 1890.28 501.934V630.168C1890.28 632.377 1888.49 634.168 1886.28 634.168H1843.83C1841.62 634.168 1839.83 632.377 1839.83 630.168V501.934C1839.83 499.725 1838.03 497.934 1835.83 497.934H1618.11C1617.91 497.934 1617.72 497.949 1617.52 497.977C1605.83 499.711 1599.21 502.293 1592.44 509.575C1590.23 511.958 1592.05 515.651 1595.31 515.692L1782.9 518.067C1785.09 518.095 1786.85 519.877 1786.85 522.067V562.051C1786.85 564.26 1785.06 566.051 1782.85 566.051H1595.36C1592.1 566.051 1590.22 569.748 1592.34 572.229C1598.81 579.807 1605.5 584.118 1617.46 586.173C1617.69 586.214 1617.94 586.232 1618.17 586.229L1802.98 583.765C1805.21 583.735 1807.03 585.535 1807.03 587.765V630.168C1807.03 632.377 1805.24 634.168 1803.03 634.168H1617.82C1569.88 631.645 1532.04 598.848 1532.04 540.823C1539.08 482.263 1564.84 455.046 1617.82 450H1997.29C1999.5 450 2001.29 451.791 2001.29 454Z"></path>
<path stroke-width="85" stroke="black" fill="black" d="M2026.51 540.823C2033.56 482.263 2059.31 455.046 2112.29 450H2289.93C2292.14 450 2293.93 451.791 2293.93 454V493.934C2293.93 496.143 2292.14 497.934 2289.93 497.934H2112.58C2112.39 497.934 2112.19 497.949 2112 497.977C2100.31 499.711 2093.68 502.293 2086.91 509.575C2084.7 511.958 2086.53 515.651 2089.78 515.692L2277.37 518.067C2279.56 518.095 2281.32 519.877 2281.32 522.067V562.051C2281.32 564.26 2279.53 566.051 2277.32 566.051H2089.84C2086.57 566.051 2084.69 569.748 2086.81 572.229C2093.29 579.807 2099.98 584.118 2111.93 586.173C2112.17 586.214 2112.41 586.232 2112.65 586.229L2297.45 583.765C2299.68 583.735 2301.5 585.535 2301.5 587.765V630.168C2301.5 632.377 2299.71 634.168 2297.5 634.168H2112.29C2064.35 631.645 2026.51 598.848 2026.51 540.823Z"></path>
<path stroke-width="85" stroke="black" fill="black" d="M1231.81 630.168V454C1231.81 451.791 1233.6 450 1235.81 450H1280.79C1283 450 1284.79 451.791 1284.79 454V514.117C1284.79 516.326 1286.58 518.117 1288.79 518.117H1454.86C1457.07 518.117 1458.86 516.326 1458.86 514.117V454C1458.86 451.791 1460.66 450 1462.86 450H1505.32C1507.53 450 1509.32 451.791 1509.32 454V630.168C1509.32 632.377 1507.53 634.168 1505.32 634.168H1462.86C1460.66 634.168 1458.86 632.377 1458.86 630.168V570.051C1458.86 567.842 1457.07 566.051 1454.86 566.051H1288.79C1286.58 566.051 1284.79 567.842 1284.79 570.051V630.168C1284.79 632.377 1283 634.168 1280.79 634.168H1235.81C1233.6 634.168 1231.81 632.377 1231.81 630.168Z"></path>
<path stroke-width="85" stroke="black" fill="black" d="M934.121 454V630.168C934.121 632.377 935.912 634.168 938.121 634.168H980.578C982.787 634.168 984.578 632.377 984.578 630.168V511.468C984.578 508.086 988.515 506.23 991.124 508.383L1142.41 633.253C1143.12 633.844 1144.03 634.168 1144.95 634.168H1207.63C1209.84 634.168 1211.63 632.377 1211.63 630.168V454C1211.63 451.791 1209.84 450 1207.63 450H1162.73C1160.49 450 1158.69 451.838 1158.73 454.077L1161.01 572.573C1161.08 575.977 1157.13 577.901 1154.49 575.755L1000.82 450.896C1000.1 450.316 999.213 450 998.295 450H938.121C935.912 450 934.121 451.791 934.121 454Z"></path>
<path stroke-width="85" stroke="black" fill="black" d="M911.4 540.822C911.4 487.842 871.035 450 838.238 450H688.289C686.048 450 684.245 451.84 684.29 454.08L685.036 491.491C685.08 493.668 686.857 495.411 689.035 495.411H830.533C873.421 495.411 875.944 586.233 830.533 586.233L684.208 588.756C640.383 583.887 641.202 506.177 679.862 496.219C682.152 495.629 683.769 493.408 683.263 491.098L675.041 453.595C674.596 451.563 672.663 450.197 670.622 450.596C634.492 457.648 606.137 496.792 606.137 538.299C603.614 583.71 636.411 626.599 674.253 631.644L838.238 634.167C878.603 629.121 913.923 583.71 911.4 540.822Z"></path>
<path stroke-width="85" stroke="black" fill="black" d="M679.092 450H684.197C685.59 450 686.72 451.129 686.72 452.523V494.011C686.72 494.784 686.093 495.411 685.32 495.411C684.664 495.411 684.096 494.955 683.953 494.315L675.187 454.867C674.632 452.369 676.533 450 679.092 450Z"></path>
<path fill="white" d="M307.865 665.627C304.737 690.645 295.412 710.161 266.316 736.214H373.091C345.169 715.216 333.886 697.315 328.639 665.627C327.299 650.66 309.931 649.096 307.865 665.627Z"></path>
<path fill="white" d="M143.242 637.04C138.551 673.451 143.242 704.054 160.219 736.444C147.573 734.904 140.881 732.992 129.616 727.508C99.7383 679.677 84.4941 644.412 78.2389 587.897C75.559 574.048 57.4654 576.952 58.1349 587.897C61.7096 630.786 70.6447 654.687 89.1844 697.576C56.5713 661.165 42.0523 624.978 42.0517 568.24C40.2656 538.531 85.2868 530.713 91.6416 562.879C99.0131 600.183 114.203 619.17 143.242 637.04Z"></path>
<path fill="white" d="M493.278 637.49C497.969 673.901 493.278 704.503 476.301 736.893C488.947 735.354 495.638 733.442 506.904 727.958C536.781 680.126 552.025 644.861 558.281 588.347C560.961 574.497 579.054 577.401 578.385 588.347C574.81 631.235 565.875 655.137 547.335 698.025C579.948 661.615 594.467 625.427 594.468 568.69C596.254 538.98 551.233 531.162 544.878 563.329C537.506 600.633 522.317 619.62 493.278 637.49Z"></path>
<path fill="white" d="M159.329 594.597C126.493 574.717 128.28 522.446 156.425 503.459L133.64 493.184C98.1226 526.02 104.155 581.865 145.703 614.478C198.867 650.889 258.733 615.818 270.348 566.675L248.68 551.709C246 592.81 197.751 622.743 159.329 594.597Z"></path>
<path fill="white" d="M476.085 594.822C508.921 574.942 507.134 522.671 478.989 503.684L501.774 493.409C537.291 526.245 531.259 582.09 489.711 614.703C436.547 651.113 376.681 616.043 365.067 566.9L386.734 551.934C389.414 593.035 437.663 622.968 476.085 594.822Z"></path>
<path fill="white" d="M319.048 631.453L292.02 593.255L319.048 555.058L346.077 593.255L319.048 631.453Z"></path>
<path fill="white" d="M92.0964 528.697C75.5321 520.639 65.6343 519.731 46.5273 526.687C49.878 505.019 62.3657 481.246 80.034 458.11L113.094 484.245C100.516 500.489 96.241 510.304 92.0964 528.697Z"></path>
<path fill="white" d="M544.185 528.697C560.749 520.639 570.647 519.731 589.754 526.687C586.403 505.019 573.916 481.246 556.247 458.11L523.187 484.245C535.766 500.489 540.04 510.304 544.185 528.697Z"></path>
<path fill="white" d="M269.233 436.445C214.058 396.907 118.788 397.912 97.902 329C61.4913 348.21 58.3641 413.213 95.6682 445.38C168.266 499.661 178.988 475.983 276.827 545.676C266.582 496.088 241.172 474.509 162.681 446.497C124.037 431.977 101.7 421.925 91.2006 396.907C83.3824 380.6 103.04 372.559 109.071 386.855C113.87 395.034 118.172 399.834 128.505 408.969C176.084 446.497 269.233 426.839 300.282 545.676L308.324 535.178C306.24 488.065 298.272 459.229 269.233 436.445Z"></path>
<path fill="white" d="M367.521 436.445C422.696 396.907 517.966 397.912 538.852 329C575.263 348.21 578.39 413.213 541.086 445.38C468.488 499.661 457.766 475.983 359.926 545.676C370.172 496.088 395.582 474.509 474.072 446.497C512.717 431.977 535.054 421.925 545.553 396.907C553.372 380.6 533.714 372.559 527.683 386.855C522.883 395.034 518.582 399.834 508.249 408.969C460.67 446.497 367.521 426.839 336.472 545.676L328.43 535.178C330.514 488.065 338.482 459.229 367.521 436.445Z"></path>
<path fill="white" d="M262.981 613.135C246.897 660.268 217.412 682.605 176.98 693.327C158.439 698.244 165.811 716.937 181.448 713.431C231.261 702.263 263.874 670.766 281.521 621.176C283.977 609.338 269.458 603.083 262.981 613.135Z"></path>
<path fill="white" d="M373.14 612.792C389.224 659.924 418.71 682.262 459.141 692.984C477.682 697.901 470.311 716.594 454.673 713.088C404.86 701.92 372.247 670.423 354.6 620.833C352.144 608.995 366.663 602.74 373.14 612.792Z"></path>
<path fill="white" d="M2005.29 446V493.934H1894.28V630.168H1843.83V493.934H1621.82C1607.15 496.076 1600.41 499.484 1591.54 511.594L1790.85 514.117V562.051H1591.54C1599.92 573.65 1606.68 579.711 1621.82 582.234L1811.03 579.711V630.168H1621.82C1573.88 627.645 1536.04 594.848 1536.04 536.823C1543.08 478.263 1568.84 451.046 1621.82 446H2005.29Z"></path>
<path fill="white" d="M2030.51 536.823C2037.56 478.263 2063.31 451.046 2116.29 446H2297.93V493.934H2116.29C2101.63 496.076 2094.88 499.484 2086.01 511.594L2285.32 514.117V562.051H2086.01C2094.39 573.65 2101.15 579.711 2116.29 582.234L2305.5 579.711V630.168H2116.29C2068.35 627.645 2030.51 594.848 2030.51 536.823Z"></path>
<path fill="white" d="M1235.81 630.168V446H1288.79V514.117H1462.86V446H1513.32V630.168H1462.86V562.051H1288.79V630.168H1235.81Z"></path>
<path fill="white" d="M938.121 446V630.168H988.578V498.98L1147.52 630.168H1215.63V446H1162.65L1165.18 577.188L1003.71 446H938.121Z"></path>
<path fill="white" d="M915.4 536.822C915.4 483.842 875.035 446 842.238 446H688.208L689.114 491.411H834.533C877.421 491.411 879.944 582.233 834.533 582.233L688.208 584.756C642.797 579.71 645.32 496.457 688.208 491.411L678.253 446C640.411 451.045 610.137 491.411 610.137 534.299C607.614 579.71 640.411 622.599 678.253 627.644L842.238 630.167C882.603 625.122 917.923 579.71 915.4 536.822Z"></path>
<path fill="white" d="M678.105 446H688.197H690.72V491.411H688.197L678.105 446Z"></path>
<circle fill="black" r="20" cy="549" cx="193"></circle>
<circle fill="black" r="20" cy="550" cx="445"></circle>
<path stroke-width="90" stroke="black" d="M687 538H827.5"></path>
</g>
<defs>
<clipPath id="clip0_1555_124">
<rect fill="white" height="1073" width="2348"></rect>
</clipPath>
</defs>
</svg>
